<svg xmlns="http://www.w3.org/2000/svg" width="512" height="512"><path d="M256 0C114.609 0 0 114.609 0 256c0 141.391 114.609 256 256 256 141.391 0 256-114.609 256-256C512 114.609 397.391 0 256 0zm0 472c-119.297 0-216-96.703-216-216S136.703 40 256 40s216 96.703 216 216-96.703 216-216 216z" data-original="#000000" class="active-path" data-old_color="#FF3F00" fill="#030303"/><path d="M316.75 216.812h-44.531v-32.5c0-9.969 10.312-12.281 15.125-12.281h28.767v-43.859l-32.97-.172c-44.983 0-55.25 32.703-55.25 53.672v35.141H195.25V262h32.641v122h44.328V262h37.656l6.875-45.188z" data-original="#000000" class="active-path" data-old_color="#FF3F00" fill="#030303"/></svg>