<svg xmlns="http://www.w3.org/2000/svg" viewBox="0 0 486.392 486.392" width="512" height="512"><path d="M395.193 0H91.198C40.826 0 0 40.826 0 91.198v303.995c0 50.372 40.826 91.198 91.198 91.198h303.995c50.372 0 91.198-40.827 91.198-91.198V91.198C486.392 40.826 445.565 0 395.193 0zM175.344 406.836c-53.837 0-99.254-21.918-99.254-56.938 0-35.537 41.434-69.858 95.272-69.828l16.811-.152c-7.357-7.144-13.193-15.929-13.193-26.782 0-6.445 2.067-12.616 4.925-18.118l-8.968.304c-44.231 0-73.84-31.463-73.84-70.466 0-38.151 40.887-71.074 84.359-71.074h96.974l-21.766 15.686H225.93c20.398 7.843 31.251 31.615 31.251 55.996 0 20.459-11.339 38.091-27.36 50.615-15.656 12.251-18.604 17.358-18.604 27.755 0 8.877 16.781 23.955 25.536 30.187 25.627 18.118 33.865 34.929 33.865 62.988-.002 35.02-33.897 69.827-95.274 69.827zm250.249-193.462h-60.799v60.708h-30.369v-60.708h-60.829v-30.977h60.829v-60.799h30.369v60.799h60.799v30.977z" data-original="#090509" class="active-path" data-old_color="#090509" fill="#919191"/><path d="M222.342 167.349c-4.317-32.771-28.059-59.097-53.017-59.857-24.958-.73-41.708 24.35-37.391 57.181 4.317 32.801 28.059 60.009 53.047 60.738 24.927.761 41.708-25.23 37.361-58.062zm-16.568 125.672c-7.357-2.371-15.473-3.8-24.137-3.891-37.209-.395-70.527 22.678-70.527 50.433 0 28.332 26.873 51.861 64.082 51.861 52.317 0 70.527-22.131 70.527-50.402 0-3.405-.456-6.749-1.186-10.001-4.073-16.052-18.574-23.986-38.759-38z" data-original="#090509" class="active-path" data-old_color="#090509" fill="#919191"/></svg>