<svg xmlns="http://www.w3.org/2000/svg" width="512" height="512" viewBox="0 0 438.557 438.557"><path d="M414.418 24.128C398.341 8.047 378.972.005 356.323.005V0H82.239C59.591 0 40.222 8.044 24.138 24.125 8.057 40.209.015 59.578.015 82.226v274.089c0 22.647 8.042 42.018 24.123 58.095 16.084 16.084 35.454 24.126 58.102 24.126h52.25c-3.239-29.304-2.573-53.481 1.997-72.512l27.978-118.198c-4.568-9.329-6.854-20.841-6.854-34.543 0-15.796 4.045-29.075 12.137-39.827 8.086-10.757 17.937-16.134 29.547-16.134 9.326 0 16.512 3.092 21.554 9.276 5.041 6.189 7.566 13.945 7.566 23.272 0 5.898-1.047 12.99-3.138 21.267-2.098 8.285-4.9 17.99-8.422 29.126-3.521 11.135-6.042 19.934-7.566 26.404-2.663 11.424-.476 21.27 6.567 29.555 7.042 8.274 16.272 12.422 27.696 12.422 20.177 0 36.686-11.231 49.539-33.694 12.847-22.456 19.267-49.676 19.267-81.649 0-24.551-7.946-44.54-23.846-59.955-15.886-15.418-38.013-23.128-66.376-23.128-31.78 0-57.526 10.138-77.228 30.407-19.701 20.271-29.552 44.684-29.552 73.233 0 16.748 4.761 31.025 14.277 42.828 3.234 3.614 4.283 7.615 3.14 11.995-.953 3.237-2.38 9.041-4.283 17.412-.763 2.669-2.141 4.473-4.141 5.428-2.002.951-4.237.951-6.711 0-14.655-6.088-25.747-16.563-33.263-31.409-7.517-14.842-11.276-31.977-11.276-51.387 0-12.564 2.047-25.179 6.14-37.831 4.093-12.66 10.422-24.841 18.986-36.545 8.564-11.709 18.792-22.129 30.69-31.267 11.894-9.132 26.458-16.413 43.682-21.838 17.222-5.424 35.736-8.137 55.524-8.137 20.181 0 38.927 3.48 56.25 10.426 17.319 6.945 31.833 16.175 43.544 27.69 11.703 11.516 20.889 24.744 27.545 39.687 6.666 14.938 9.996 30.406 9.996 46.392 0 43.019-10.896 78.564-32.688 106.637-21.793 28.075-49.916 42.116-84.363 42.116-11.43 0-22.128-2.666-32.124-7.994-9.991-5.328-16.986-11.704-20.984-19.13-8.374 33.312-13.417 53.197-15.131 59.669-4.377 16.751-14.655 36.733-30.833 59.956H356.32c22.647 0 42.017-8.042 58.095-24.126 16.084-16.084 24.126-35.454 24.126-58.102v-274.1c0-22.646-8.042-42.016-24.123-58.1z" data-original="#000000" class="active-path" data-old_color="#000000" fill="#919191"/></svg>