<svg xmlns="http://www.w3.org/2000/svg" viewBox="0 0 486.392 486.392" width="512" height="512"><path d="M395.193 0H91.198C40.826 0 0 40.826 0 91.198v303.995c0 50.372 40.826 91.198 91.198 91.198h303.995c50.372 0 91.198-40.827 91.198-91.198V91.198C486.392 40.826 445.565 0 395.193 0zm-31.007 188.598l.182 7.752c0 79.16-60.221 170.359-170.359 170.359-33.804 0-65.268-9.91-91.776-26.904 4.682.547 9.454.851 14.288.851 28.059 0 53.868-9.576 74.357-25.627-26.204-.486-48.305-17.814-55.935-41.586a62.478 62.478 0 0 0 11.278 1.034c5.472 0 10.761-.699 15.777-2.067-27.39-5.533-48.031-29.7-48.031-58.701v-.76c8.086 4.499 17.297 7.174 27.116 7.509-16.051-10.731-26.63-29.062-26.63-49.825 0-10.974 2.949-21.249 8.086-30.095 29.518 36.236 73.658 60.069 123.422 62.562-1.034-4.378-1.55-8.968-1.55-13.649 0-33.044 26.812-59.857 59.887-59.857 17.206 0 32.771 7.265 43.714 18.908a121.25 121.25 0 0 0 38.03-14.531c-4.469 13.984-13.953 25.718-26.326 33.135a120.032 120.032 0 0 0 34.382-9.424c-8.025 11.977-18.209 22.526-29.912 30.916z" data-original="#010002" class="active-path" data-old_color="#010002" fill="#919191"/></svg>