<svg xmlns="http://www.w3.org/2000/svg" width="19.188" height="13.34"><path d="M17.692 1.2c.33 0 .3-.03.3.3v9.71c0 .34.031.91-.3.91H2.099a1.24 1.24 0 0 1-.9-.91V1.5c0-.33.569-.3.9-.3h15.293m.3-1.21H2.099c-.993 0-2.1.51-2.1 1.51v9.71a2.36 2.36 0 0 0 2.1 2.12h15.593c.993 0 1.5-1.11 1.5-2.12V1.5a1.335 1.335 0 0 0-1.5-1.51zm-8.1 9.15A.631.631 0 0 1 9.2 9l-9-7.28A.617.617 0 0 1 .14.86.6.6 0 0 1 .986.8l8.6 6.93 8.6-6.93a.6.6 0 0 1 .846.06.617.617 0 0 1-.06.86l-9 7.28a.636.636 0 0 1-.377.14z" fill="#4c76ff" fill-rule="evenodd"/></svg>