<svg xmlns="http://www.w3.org/2000/svg" width="21.34" height="21.38"><path d="M19.71 21.37H1.65A1.593 1.593 0 0 1 0 19.79V1.65A1.643 1.643 0 0 1 1.65.01h18.06a1.635 1.635 0 0 1 1.64 1.64v18.14a1.585 1.585 0 0 1-1.64 1.58zM9.1 4.13a6.2 6.2 0 0 0-2.56.46 3.1 3.1 0 0 0-1.33 1.36 4.657 4.657 0 0 0-.36 2.1v.96h-1.6v2.5h1.6v8.31h3.42v-8.31h2.13l.59-2.5H8.27v-.9a1.267 1.267 0 0 1 1.49-1.57 2.917 2.917 0 0 1 1.46.54l.62-2.35a9.682 9.682 0 0 0-2.74-.6z" fill="#062033" fill-rule="evenodd" opacity=".2"/></svg>