<svg xmlns="http://www.w3.org/2000/svg" width="21.38" height="13.66"><path d="M14.04 1.32h5.32v1.35h-5.32V1.32zm7.34 8.04h-6.93a2.075 2.075 0 0 0 2.36 2.3c1.06 0 1.92-.33 2.08-.93h2.12c-.75 2.27-2.12 2.93-4.29 2.93-3.03 0-4.9-2.09-4.9-5.08a4.826 4.826 0 0 1 4.9-5.09c3.27 0 4.85 2.91 4.66 5.87zm-6.93-1.97h4.3c-.25-1.34-.82-1.9-2.1-1.9a1.986 1.986 0 0 0-2.2 1.9zm-3.33 2.14c0 2.71-2.28 3.87-4.68 3.87H.02V-.01h6.24c2.52 0 4.23.9 4.23 3.39a2.93 2.93 0 0 1-1.8 2.78 3.232 3.232 0 0 1 2.43 3.37zM5.41 2.24H2.68v3.12h2.96a1.535 1.535 0 0 0 1.78-1.58c0-1.27-.97-1.54-2.01-1.54zm.45 5.12H2.68v3.66H5.8c1.15 0 2.16-.38 2.16-1.76a1.8 1.8 0 0 0-2.1-1.9z" fill="#062033" fill-rule="evenodd" opacity=".2"/></svg>