<svg xmlns="http://www.w3.org/2000/svg" width="21.38" height="21.38"><path d="M21.16 8.53a10.77 10.77 0 0 0-.62-2 10.33 10.33 0 0 0-.99-1.82 11.489 11.489 0 0 0-1.3-1.58 10.922 10.922 0 0 0-1.58-1.3 10.33 10.33 0 0 0-1.82-.99 10.77 10.77 0 0 0-2-.62A11.124 11.124 0 0 0 10.7 0a10.966 10.966 0 0 0-2.15.22 10.508 10.508 0 0 0-3.83 1.61 10.572 10.572 0 0 0-2.88 2.88 10.284 10.284 0 0 0-.98 1.82 10.1 10.1 0 0 0-.63 2 11.111 11.111 0 0 0 0 4.3 9.984 9.984 0 0 0 .63 2.01 10.556 10.556 0 0 0 .98 1.81 10.408 10.408 0 0 0 1.3 1.58 11.564 11.564 0 0 0 1.58 1.31 11.391 11.391 0 0 0 1.82.98 10.639 10.639 0 0 0 2.01.62 10.253 10.253 0 0 0 2.15.22 10.391 10.391 0 0 0 2.15-.22 10.77 10.77 0 0 0 2-.62 10.4 10.4 0 0 0 3.4-2.29 10.408 10.408 0 0 0 1.3-1.58 10.366 10.366 0 0 0 1.61-3.82 10.616 10.616 0 0 0 0-4.3zm-1.35 2.06a21.144 21.144 0 0 0-6.35-.3c-.06-.15-.13-.31-.2-.47-.18-.44-.39-.89-.6-1.32a11.705 11.705 0 0 0 5.08-3.61 9.061 9.061 0 0 1 2.07 5.7zm-3.09-6.75a9.95 9.95 0 0 1-4.76 3.3 47.894 47.894 0 0 0-3.41-5.32 9.071 9.071 0 0 1 8.17 2.02zM8.51 1.83a.077.077 0 0 0-.03.01.037.037 0 0 1 .03-.01zm-1.71.6a53.8 53.8 0 0 1 3.39 5.26A33.512 33.512 0 0 1 1.77 8.8 9.16 9.16 0 0 1 6.8 2.43zm-5.22 8.25v-.29a33.033 33.033 0 0 0 9.37-1.3c.26.52.51 1.04.74 1.55-.12.04-.24.08-.36.11a14.442 14.442 0 0 0-7.42 6.02v.01a9.119 9.119 0 0 1-2.33-6.1zm9.12 9.12a9.037 9.037 0 0 1-5.81-2.09c.12.1.2.16.2.16s1.75-3.81 7.16-5.69a.142.142 0 0 1 .06-.02 38.571 38.571 0 0 1 1.95 6.92 9.021 9.021 0 0 1-3.56.72zm5.09-1.55a39.652 39.652 0 0 0-1.77-6.52 13.244 13.244 0 0 1 5.68.4 9.125 9.125 0 0 1-3.91 6.12z" fill="#062033" fill-rule="evenodd" opacity=".2"/></svg>