<svg xmlns="http://www.w3.org/2000/svg" width="18.34" height="21.34"><path d="M18.27 21.13a.473.473 0 0 1-.4.22h-7.39v-4.01l3.28-2a.668.668 0 0 0 .66-.67.659.659 0 0 0-.66-.66l-3.28 2v-2.34l1.97-1a.665.665 0 0 0 0-1.33l-1.97 1v-1a.66.66 0 0 0-.65-.67H8.52a.668.668 0 0 0-.66.67v4.22l-2.62-.89a.67.67 0 0 0 0 1.34l2.62.89v4.45H.48a.5.5 0 0 1-.4-.22.493.493 0 0 1-.04-.47L8.75.28a.484.484 0 0 1 .44-.29.5.5 0 0 1 .44.29l8.68 20.38a.522.522 0 0 1-.04.47z" fill="#062033" fill-rule="evenodd" opacity=".2"/></svg>