<svg xmlns="http://www.w3.org/2000/svg" width="21.38" height="18.34"><path data-name="google plus" d="M18.04 4.61v3.26H16.7V4.61h-3.33V3.28h3.33V.02h1.34v3.26h3.34v1.33h-3.34zm-9.23-3.3a3.433 3.433 0 0 1 1.88 3.11 3.64 3.64 0 0 1-1.66 2.81c-.91.69-1.08.99-1.08 1.58a3.626 3.626 0 0 0 1.48 1.72 3.8 3.8 0 0 1 1.93 3.6c0 1.99-1.93 4.23-5.49 4.23-3.13 0-5.85-1.5-5.85-3.5 0-2.03 2.49-3.99 5.62-3.99.34 0 .65-.01.97-.01a2.144 2.144 0 0 1-.76-1.54 2.216 2.216 0 0 1 .28-1.04c-.17.01-.34-.02-.52-.02a4.086 4.086 0 0 1-4.29-4.08C1.32 2 3.7 0 6.22 0h5.63l-1.26 1.31H8.81zM6.23 11.39c-2.16-.02-4.1 1.3-4.1 2.88 0 1.61 1.56 2.79 3.73 2.79 3.04 0 4.1-1.09 4.1-2.71a2.776 2.776 0 0 0-.07-.57c-.24-.91-1.08-1.37-2.26-2.17a5.07 5.07 0 0 0-1.4-.22zm2.43-6.94c-.25-1.87-1.69-3.38-3.14-3.42S3.09 2.42 3.34 4.29s1.63 3.43 3.08 3.47 2.49-1.44 2.24-3.31z" fill="#062033" fill-rule="evenodd" opacity=".2"/></svg>