<svg xmlns="http://www.w3.org/2000/svg" width="21.38" height="17.32"><path d="M14.54-.01a4.5 4.5 0 0 1 3.47 1.38 7.4 7.4 0 0 0 2.24-.76c.19-.1.37-.2.55-.3a4.446 4.446 0 0 1-1.42 2.06 2.317 2.317 0 0 1-.48.34v.01a8.352 8.352 0 0 0 2.48-.67v.01a6.931 6.931 0 0 1-1.49 1.7c-.23.19-.46.37-.68.55A12.543 12.543 0 0 1 19 7.12c-1.09 4.92-3.99 8.26-8.58 9.69a13.157 13.157 0 0 1-6.2.25 15.6 15.6 0 0 1-2.58-.84 9.647 9.647 0 0 1-1.24-.64c-.13-.08-.26-.15-.38-.23a7.115 7.115 0 0 0 1.4.05c.43-.07.85-.05 1.25-.14a8.624 8.624 0 0 0 2.63-.95 4.807 4.807 0 0 0 1.18-.77 3.673 3.673 0 0 1-1.3-.24 4.4 4.4 0 0 1-2.78-2.8 4.24 4.24 0 0 0 1.96-.09 3.307 3.307 0 0 1-1.44-.57A4.2 4.2 0 0 1 .86 6.09l.45.21a4.945 4.945 0 0 0 .92.26 1.327 1.327 0 0 0 .6.05h-.02c-.22-.26-.58-.43-.81-.7a4.5 4.5 0 0 1-.98-3.98A5.56 5.56 0 0 1 1.49.79a.031.031 0 0 0 .02.01 2.935 2.935 0 0 0 .4.46 8.1 8.1 0 0 0 1.3 1.25A12.912 12.912 0 0 0 8.57 5.1a8.552 8.552 0 0 0 1.97.25 3.957 3.957 0 0 1 .02-2.05A4.312 4.312 0 0 1 13.04.35a5.256 5.256 0 0 1 .97-.29c.18-.03.36-.05.53-.07z" fill="#062033" fill-rule="evenodd" opacity=".2"/></svg>