<svg xmlns="http://www.w3.org/2000/svg" width="49.438" height="48.792" viewBox="0 0 38.563 38.059">
  <metadata><?xpacket begin="﻿" id="W5M0MpCehiHzreSzNTczkc9d"?>
<x:xmpmeta xmlns:x="adobe:ns:meta/" x:xmptk="Adobe XMP Core 5.6-c138 79.159824, 2016/09/14-01:09:01        ">
   <rdf:RDF xmlns:rdf="http://www.w3.org/1999/02/22-rdf-syntax-ns#">
      <rdf:Description rdf:about=""/>
   </rdf:RDF>
</x:xmpmeta>
                                                                                                    
                                                                                                    
                                                                                                    
                                                                                                    
                                                                                                    
                                                                                                    
                                                                                                    
                                                                                                    
                                                                                                    
                                                                                                    
                                                                                                    
                                                                                                    
                                                                                                    
                                                                                                    
                                                                                                    
                                                                                                    
                                                                                                    
                                                                                                    
                                                                                                    
                                                                                                    
                           
<?xpacket end="w"?></metadata>
<defs>
    <style>
      .cls-1 {
        fill: #fed136;
        fill-rule: evenodd;
      }
    </style>
  </defs>
  <path id="Icon-Basket" class="cls-1" d="M353.508,996.331h33.04l-1.271,22.029h-30.5Zm0.689-6.883H385.86a3.442,3.442,0,1,1,0,6.883H354.2A3.442,3.442,0,1,1,354.2,989.448Zm-2.065,6.883h35.793v1.377H352.132v-1.377Zm17.9,6.879a1.38,1.38,0,0,1,1.377,1.38v8.26a1.377,1.377,0,1,1-2.753,0v-8.26A1.379,1.379,0,0,1,370.028,1003.21Zm8.26,0a1.38,1.38,0,0,1,1.377,1.38v8.26a1.377,1.377,0,1,1-2.754,0v-8.26A1.38,1.38,0,0,1,378.288,1003.21Zm-16.52,0a1.38,1.38,0,0,1,1.377,1.38v8.26a1.377,1.377,0,1,1-2.753,0v-8.26A1.379,1.379,0,0,1,361.768,1003.21Zm12.046-22.569a2.752,2.752,0,0,1,3.761,1.008l4.13,7.153a2.753,2.753,0,1,1-4.769,2.753l-4.13-7.153A2.754,2.754,0,0,1,373.814,980.641Zm-7.572,0a2.753,2.753,0,0,0-3.761,1.008l-4.13,7.153a2.753,2.753,0,1,0,4.769,2.753l4.13-7.153A2.754,2.754,0,0,0,366.242,980.641Z" transform="translate(-350.75 -980.281)"/>
</svg>
