<svg xmlns="http://www.w3.org/2000/svg" width="50.469" height="42.03" viewBox="0 0 40.375 33.624">
  <metadata><?xpacket begin="﻿" id="W5M0MpCehiHzreSzNTczkc9d"?>
<x:xmpmeta xmlns:x="adobe:ns:meta/" x:xmptk="Adobe XMP Core 5.6-c138 79.159824, 2016/09/14-01:09:01        ">
   <rdf:RDF xmlns:rdf="http://www.w3.org/1999/02/22-rdf-syntax-ns#">
      <rdf:Description rdf:about=""/>
   </rdf:RDF>
</x:xmpmeta>
                                                                                                    
                                                                                                    
                                                                                                    
                                                                                                    
                                                                                                    
                                                                                                    
                                                                                                    
                                                                                                    
                                                                                                    
                                                                                                    
                                                                                                    
                                                                                                    
                                                                                                    
                                                                                                    
                                                                                                    
                                                                                                    
                                                                                                    
                                                                                                    
                                                                                                    
                                                                                                    
                           
<?xpacket end="w"?></metadata>
<defs>
    <style>
      .cls-1 {
        fill: #fed136;
        fill-rule: evenodd;
      }
    </style>
  </defs>
  <path id="Icon-Laptop" class="cls-1" d="M687.356,982.9h26.908a4.036,4.036,0,0,1,4.036,4.036v17.494a4.037,4.037,0,0,1-4.036,4.03H687.356a4.037,4.037,0,0,1-4.036-4.03V986.936A4.036,4.036,0,0,1,687.356,982.9Zm-4.036,22.87h4.036v2.69H683.32v-2.69Zm30.944,0H718.3v2.69h-4.036v-2.69Zm-26.908-18.834h26.908v24.214H687.356V986.936Zm-4.036,24.214H718.3a2.694,2.694,0,0,1,2.691,2.69c0,1.49-2.551,2.69-4.037,2.69H684.666c-1.486,0-4.036-1.2-4.036-2.69A2.693,2.693,0,0,1,683.32,1011.15Zm13.454,2.69h8.072a0.842,0.842,0,1,1,0,1.35h-8.072A0.842,0.842,0,1,1,696.774,1013.84Zm-5-15.156,1.894-1.9a1.336,1.336,0,0,1,1.894,0l4.735,4.759a1.347,1.347,0,0,1,0,1.9l-1.894,1.9a1.327,1.327,0,0,1-1.894,0l-4.735-4.75A1.354,1.354,0,0,1,691.777,998.684Zm16.167-7.447,1.9,1.9a1.35,1.35,0,0,1,0,1.9l-10.418,10.468a1.346,1.346,0,0,1-1.9,0l-1.894-1.91a1.347,1.347,0,0,1,0-1.9l10.418-10.463A1.334,1.334,0,0,1,707.944,991.237Z" transform="translate(-680.625 -982.906)"/>
</svg>
