<svg xmlns="http://www.w3.org/2000/svg" viewBox="0 0 512.002 512.002"><path d="M197.965 198.867a23.4 23.4 0 0 0-16.847-7.585c-12.859-.165-23.497 10.087-23.715 22.936a7.5 7.5 0 0 0 7.372 7.626l.13.001a7.5 7.5 0 0 0 7.496-7.374 8.328 8.328 0 0 1 8.482-8.191 8.234 8.234 0 0 1 6.007 2.704 7.5 7.5 0 1 0 11.075-10.117zm39.902 24.443a21.485 21.485 0 0 0-12.281-11.702c-11.074-4.085-23.419 1.592-27.522 12.653a7.5 7.5 0 0 0 14.063 5.217c1.232-3.322 4.945-5.022 8.265-3.797a6.335 6.335 0 0 1 3.67 3.499 7.5 7.5 0 0 0 13.805-5.87zm48.339-66.425a7.498 7.498 0 0 0-10.606.011l-7.07 7.084a7.5 7.5 0 1 0 10.617 10.595l7.07-7.084a7.5 7.5 0 0 0-.011-10.606zm-46.661 96.824h-9.996a7.5 7.5 0 0 0-7.5 7.5 7.5 7.5 0 0 0 7.5 7.5h9.996a7.5 7.5 0 0 0 7.5-7.5 7.5 7.5 0 0 0-7.5-7.5zm76.644 0h-9.997a7.5 7.5 0 0 0 0 15h9.997a7.5 7.5 0 0 0 0-15z"/><path d="M511.761 388.942l-1.953-10.542c-1.245-6.736-7.127-11.625-13.986-11.625-.861 0-1.729.079-2.583.236l-39.76 7.304 18.006-12.037a14.197 14.197 0 0 0 6.075-14.393 14.205 14.205 0 0 0-1.598-4.381l-5.449-9.649a14.283 14.283 0 0 0-8.726-6.754 14.29 14.29 0 0 0-5.518-.348 189.717 189.717 0 0 0 3.039-33.873c0-5.105-3.07-9.498-7.455-11.449 5.73-13.628 6.121-29.23.457-43.518a9.037 9.037 0 0 0-2.024-3.083 9.083 9.083 0 0 0-3.064-2.02 57.057 57.057 0 0 0-23.983-4.005c-1.039-20.933-18.364-37.644-39.514-37.644-2.785 0-5.501.296-8.124.848A61.798 61.798 0 0 0 372.105 159a9.255 9.255 0 0 0-2.072-3.179 9.174 9.174 0 0 0-3.113-2.05 61.459 61.459 0 0 0-22.839-4.388c-11.816 0-23.119 3.322-32.877 9.498a74.176 74.176 0 0 0-17.658-28.255 12.65 12.65 0 0 0-9.011-3.738 12.655 12.655 0 0 0-9.014 3.74l-36.313 36.396a37.698 37.698 0 0 0-25.161-9.577c-2.178 0-4.377.191-6.536.567-7.823 1.362-15.022 5.191-20.541 10.799-7.077-3.415-15.184-4.58-22.975-3.224a38.053 38.053 0 0 0-4.991 1.23v-28.046c0-19.314-15.523-35.055-34.725-35.387V87.48c5.878-1.017 10.366-6.14 10.366-12.304V39.137c0-6.892-5.607-12.5-12.5-12.5H61.154c-6.893 0-12.5 5.608-12.5 12.5v36.039c0 6.164 4.488 11.287 10.366 12.304v15.904c-19.202.331-34.724 16.072-34.724 35.387v218.896C9.322 371.19 0 390.059 0 410.925c0 41.046 36.025 74.44 80.307 74.44l300.187-.088c10.246-.004 19.882-4.507 26.436-12.353a34.117 34.117 0 0 0 7.534-27.343l59.957 10.775c.83.149 1.68.225 2.523.225 2.99 0 5.855-.918 8.281-2.652a14.27 14.27 0 0 0 5.793-9.46l1.624-10.897a14.125 14.125 0 0 0-.077-4.674 14.207 14.207 0 0 0-10.81-11.261l-21.133-4.848 39.721-7.297a14.136 14.136 0 0 0 9.152-5.922 14.089 14.089 0 0 0 2.266-10.628zm-85.74-145.207c4.515 0 8.954.715 13.222 2.124 3.814 11.614 2.386 24.141-3.586 34.489h-20.204l6.447-6.462a7.5 7.5 0 0 0-.013-10.607 7.498 7.498 0 0 0-10.606.012l-3.411 3.419a34.785 34.785 0 0 0-8.061-13.846c7.444-5.911 16.582-9.129 26.212-9.129zm-42.296-37.576c13.545 0 24.564 11.052 24.564 24.637 0 .252-.012.501-.019.751-7.906 2.571-15.193 6.866-21.408 12.699a34.415 34.415 0 0 0-3.022-1.008 34.793 34.793 0 0 0-20.732-25.789c4.379-6.784 11.977-11.29 20.617-11.29zm-39.645-41.778c5.094 0 10.1.824 14.924 2.454a46.988 46.988 0 0 1-1.855 34.637 39.83 39.83 0 0 0-9.608 13.321 35.396 35.396 0 0 0-4.001.456c-5.877 1.023-11.357 3.573-15.943 7.271a39.69 39.69 0 0 0-5.673-7.875l17.199-17.238a7.498 7.498 0 0 0-.013-10.606 7.5 7.5 0 0 0-10.607.012l-18.798 18.841a39.202 39.202 0 0 0-11.506-3.417 46.863 46.863 0 0 1 12.816-24.117c8.839-8.86 20.582-13.739 33.065-13.739zm-57.47 115.967h-6.501c-1.095-2.786-3.802-4.761-6.977-4.761s-5.882 1.976-6.977 4.761h-7.648c1.776-2.892 1.417-6.724-1.09-9.226a7.5 7.5 0 0 0-10.607.011l-7.069 7.084a7.465 7.465 0 0 0-1.482 2.131h-15.265c-5.717-8.773-9.206-19.128-9.619-30.268h118.986c-.413 11.14-3.902 21.495-9.619 30.268h-15.885a7.47 7.47 0 0 0-1.482-2.132l-7.068-7.084a7.5 7.5 0 0 0-10.606-.012c-2.509 2.502-2.868 6.335-1.091 9.228zm-17.443-45.268c2.827-10.477 12.384-18.208 23.71-18.208 11.327 0 20.884 7.732 23.711 18.208h-47.421zm15.337-92.221a59.31 59.31 0 0 1 14.164 26.486 61.772 61.772 0 0 0-9.519 13.652 7.451 7.451 0 0 0-3.907-1.107h-9.994a7.5 7.5 0 0 0 0 15h8.767a62.114 62.114 0 0 0-1.154 6.279 39.224 39.224 0 0 0-8.484 3.314c-4.999-8.627-13.277-15.056-23.085-17.635a37.968 37.968 0 0 0-3.024-9.67l36.236-36.319zm-135.578 67.676a22.636 22.636 0 0 1-.992-3.758c-2.151-12.401 6.209-24.249 18.632-26.412a23.136 23.136 0 0 1 3.955-.344c4.941 0 9.663 1.576 13.654 4.557a7.502 7.502 0 0 0 10.74-1.864c3.521-5.311 8.908-8.835 15.168-9.925a23.139 23.139 0 0 1 3.964-.344 22.747 22.747 0 0 1 22.454 18.905c.218 1.255.33 2.563.332 3.888a7.5 7.5 0 0 0 6.844 7.458c8.385.737 15.523 6.014 18.832 13.448a39.542 39.542 0 0 0-8.667 18.936H211.07c-5.318 0-9.881 3.283-11.784 7.929-9.41-6.409-20.5-9.862-32.122-9.862a57.084 57.084 0 0 0-21.206 4.075 9.052 9.052 0 0 0-3.06 2.017 8.972 8.972 0 0 0-2.021 3.077 57.46 57.46 0 0 0-3.499 13.331 22.696 22.696 0 0 1-5.322-11.135c-1.764-10.176 3.563-20.308 12.95-24.64a7.5 7.5 0 0 0 3.92-9.337zm22.358 67.762l2.046 2.051h-18.013c-4.044-9.382-4.658-20.061-1.375-30.077a42.05 42.05 0 0 1 13.222-2.125c11.301 0 21.932 4.417 29.933 12.436a42.427 42.427 0 0 1 2.986 3.34 74.091 74.091 0 0 0 5.74 16.425H194.52l-12.617-12.646c-2.927-2.931-7.676-2.939-10.606-.012a7.5 7.5 0 0 0-.013 10.608zm-31.94 2.051h-26.737c1.192-7.265 5.562-13.458 11.628-17.11a37.706 37.706 0 0 0 13.678 11.336 58.004 58.004 0 0 0 1.431 5.774zM63.654 41.637h55.991v31.039H63.654V41.637zm45.625 46.039v15.693H74.021V87.676h35.258zm-69.982 81.511H88a7.5 7.5 0 0 0 7.5-7.5 7.5 7.5 0 0 0-7.5-7.5H39.297v-15.416c0-11.25 9.124-20.402 20.339-20.402h64.028c11.216 0 20.34 9.152 20.34 20.402v15.416H130a7.5 7.5 0 0 0-7.5 7.5 7.5 7.5 0 0 0 7.5 7.5h14.004v6.657c-8.593 8.425-13.056 20.78-10.852 33.489l.013.077c-12.032 8.255-18.443 22.931-15.89 37.664.149.86.336 1.706.54 2.543a39.77 39.77 0 0 0-9.996 7.856H39.297v-88.286zm-.001 103.285H99.11a39.346 39.346 0 0 0-1.632 7.876h-1.264c-6.903 0-12.52 5.621-12.52 12.53 0 11.909 1.107 23.6 3.252 35.038a82.704 82.704 0 0 0-6.613-.266c-9.07 0-17.712 1.439-24.331 4.053-10.125 3.998-12.924 9.675-13.535 13.603a83.144 83.144 0 0 0-3.171 1.675v-74.509zm94.971 92.135c2.701 2.161 4.352 3.998 5.309 5.323l-.279.002c-4.245 0-11.872-1.711-20.545-6.512-3.229-1.789-6.204-3.81-8.604-5.843a7.5 7.5 0 0 0-9.697.001c-2.4 2.035-5.374 4.055-8.6 5.84-8.675 4.803-16.302 6.514-20.546 6.514l-.281-.002c.956-1.325 2.607-3.163 5.309-5.325a7.5 7.5 0 0 0-3.814-13.304c-7.319-.858-11.947-2.721-14.114-4.077 2.715-1.691 9.579-4.574 21.931-4.574 10.23 0 17.707 2.151 21.293 4.165a7.503 7.503 0 0 0 7.343.001c3.588-2.014 11.066-4.165 21.296-4.165 12.353 0 19.216 2.884 21.93 4.574-2.166 1.357-6.795 3.219-14.116 4.077a7.5 7.5 0 0 0-6.337 5.384 7.49 7.49 0 0 0 2.522 7.921zm-15.003 91.286l.258 1.39a34.157 34.157 0 0 0 5.401 13.082H80.307c-36.01 0-65.307-26.664-65.307-59.44 0-22.399 13.688-41.935 33.844-52.065 2.315 1.728 5.201 3.218 8.625 4.42-1.358 2.319-2.304 4.813-2.527 7.414-.296 3.458.762 6.742 2.982 9.248 2.933 3.312 7.435 4.991 13.381 4.991 7.924 0 18.321-3.137 27.811-8.391a73.966 73.966 0 0 0 6.185-3.82 74.439 74.439 0 0 0 6.185 3.821c9.49 5.253 19.887 8.389 27.811 8.39h.001c5.944 0 10.446-1.679 13.378-4.99 2.221-2.506 3.28-5.79 2.983-9.249-.223-2.601-1.169-5.095-2.527-7.414 3.424-1.203 6.311-2.693 8.626-4.42 15.985 8.034 27.896 21.985 32.143 38.588l-53.045 20.151c-15.527 5.9-24.608 22.004-21.592 38.294zm276.154 7.414a19.406 19.406 0 0 1-14.931 6.97l-7.872.003-4.918-26.555a7.498 7.498 0 0 0-8.741-6.009 7.5 7.5 0 0 0-6.009 8.74l4.414 23.829-25.806.01-3.325-17.957a7.5 7.5 0 0 0-14.75 2.731l2.82 15.232-60.025.023-4.518-24.388a7.5 7.5 0 0 0-14.75 2.733l4.013 21.661-87.644.034h-.006c-9.372 0-17.404-6.65-19.102-15.816l-.258-1.39c-1.695-9.156 3.423-18.213 12.17-21.537l29.477-11.198 2.196 11.852a7.502 7.502 0 0 0 8.741 6.008 7.5 7.5 0 0 0 6.007-8.741l-2.693-14.533 43.755-16.622a7.5 7.5 0 0 0-5.326-14.023l-20.361 7.735c-5.712-20.223-20.386-37.116-39.845-46.794-.611-3.928-3.41-9.605-13.534-13.603-6.619-2.614-15.261-4.053-24.331-4.053-6.242 0-12.203.689-17.465 1.944v-4.53a7.5 7.5 0 0 0-7.5-7.5 7.46 7.46 0 0 0-4.634 1.61 175.207 175.207 0 0 1-1.955-23.827H343a7.5 7.5 0 0 0 7.5-7.5 7.5 7.5 0 0 0-7.5-7.5h-3.069a74.244 74.244 0 0 0 7.474-32.519c0-6.617-5.063-12.068-11.515-12.687a19.767 19.767 0 0 1 10.223-5.116c1.145-.199 2.307-.3 3.455-.3a19.818 19.818 0 0 1 19.564 16.469c.191 1.105.289 2.245.29 3.39a7.5 7.5 0 0 0 6.844 7.462c8.963.787 16.296 7.528 17.833 16.392a19.603 19.603 0 0 1-.052 6.909H386a7.5 7.5 0 0 0-7.5 7.5 7.5 7.5 0 0 0 7.5 7.5h58.292c-.186 13.758-1.958 27.197-5.263 40.236l-40.646 23.994a34.222 34.222 0 0 0-16.225-20.447 34.433 34.433 0 0 0-29.11-2.143l-83.711 31.802a7.5 7.5 0 0 0 5.326 14.023l11.028-4.189 3.424 18.487a7.503 7.503 0 0 0 8.741 6.009 7.5 7.5 0 0 0 6.009-8.74l-3.921-21.17 58.429-22.197a19.466 19.466 0 0 1 16.459 1.21 19.27 19.27 0 0 1 9.576 13.331l15.173 81.915a19.183 19.183 0 0 1-4.163 15.84zm26.76-58.706a7.5 7.5 0 0 0-.322 14.686l55.84 12.808-1.395 9.359-64.734-11.633-10.119-54.634 56.384-33.284 4.697 8.317-47.558 31.791a7.5 7.5 0 0 0 5.524 13.612l74.706-13.723 1.664 8.98-74.687 13.721z"/></svg>