<svg xmlns="http://www.w3.org/2000/svg" viewBox="0 0 501.656 501.656"><path d="M458.828 0h-368c-22.056 0-40 17.944-40 40v124.688L5.172 210.344A8.012 8.012 0 0 0 2.828 216v280h16V219.312l32-32V208c0 4.416 3.584 8 8 8h94.984c-3.56 13.784-16.104 24-30.984 24h-32c-4.416 0-8 3.584-8 8 0 26.912-21.088 48-48 48v16c5.552 0 10.896-.728 16-2v114c0 22.056 17.944 40 40 40h24v32h16v-32h128v16c0 2.12.84 4.16 2.344 5.656l16 16 11.312-11.312-13.656-13.656v-49.376l16-16.016V448h16V227.984c0-6.608 5.376-11.984 12.016-11.984 6.608 0 11.984 5.376 11.984 11.984V408h16v-68.016c0-6.608 5.376-11.984 12.016-11.984 6.608 0 11.984 5.376 11.984 11.984V408h16v-68.016c0-6.608 5.376-11.984 12.016-11.984 6.608 0 11.984 5.376 11.984 11.984V408h16l.032-68.032c0-6.6 5.376-11.976 11.984-11.976s11.984 5.376 11.984 11.984V496h16v-32.808c18.232-3.72 32-19.88 32-39.192V40c0-22.056-17.944-40-40-40zm24 424c0 10.416-6.712 19.216-16 22.528V339.984c0-15.432-12.552-27.984-27.984-27.984-7.84 0-14.92 3.264-20 8.48-5.088-5.216-12.176-8.48-20.032-8.48-7.832 0-14.904 3.256-19.984 8.456-5.088-5.2-12.168-8.456-20.016-8.456-4.304 0-8.336 1.056-11.984 2.8v-86.816c0-15.432-12.552-27.984-28.016-27.984-15.432 0-27.984 12.552-27.984 27.984v160.672l-29.664 29.688a8.019 8.019 0 0 0-2.336 5.656v24h-168c-13.232 0-24-10.768-24-24V303.624c17.088-9.688 29.056-26.976 31.528-47.624h24.472c26.472 0 48-21.528 48-48 0-4.416-3.584-8-8-8h-96V40c0-13.232 10.768-24 24-24h368c13.232 0 24 10.768 24 24v384z"/><path d="M226.828 32h-120c-4.416 0-8 3.584-8 8v40c0 4.416 3.584 8 8 8h120c4.416 0 8-3.584 8-8V40c0-4.416-3.584-8-8-8zm-8 40h-104V48h104v24zm224-40h-120c-4.416 0-8 3.584-8 8v40c0 4.416 3.584 8 8 8h120c4.416 0 8-3.584 8-8V40c0-4.416-3.584-8-8-8zm-8 40h-104V48h104v24zm-208 200h-120c-4.416 0-8 3.584-8 8v40c0 4.416 3.584 8 8 8h120c4.416 0 8-3.584 8-8v-40c0-4.416-3.584-8-8-8zm-8 40h-104v-24h104v24zm48-280h16v152h-16zm-168 72h88v16h-88zm112 0h24v16h-24zm-112 32h88v16h-88zm112 0h24v16h-24zm-112 32h88v16h-88zm112 0h24v16h-24zm0 32h24v16h-24zm0 32h24v16h-24zm-112 112h88v16h-88zm112 0h24v16h-24zm-112 32h88v16h-88zm112 0h24v16h-24zm-112 32h88v16h-88zm112 0h24v16h-24zm104-304h88v16h-88zm112 0h24v16h-24zm-112 32h88v16h-88zm112 0h24v16h-24zm-112 32h88v16h-88zm112 0h24v16h-24zm-64 32h40v16h-40zm64 0h24v16h-24zm-64 32h40v16h-40zm64 0h24v16h-24zm-64 32h40v16h-40zm64 0h24v16h-24z"/></svg>